<svg xmlns="http://www.w3.org/2000/svg" viewBox="0 0 1200 630" role="img" aria-label="WCF Scout 2026 preview">
  <defs>
    <linearGradient id="bg" x1="0" x2="1" y1="0" y2="1">
      <stop offset="0" stop-color="#06120b"/>
      <stop offset=".5" stop-color="#0b2c18"/>
      <stop offset="1" stop-color="#032015"/>
    </linearGradient>
    <linearGradient id="glow" x1="0" x2="1">
      <stop offset="0" stop-color="#19f58f"/>
      <stop offset="1" stop-color="#29b7ff"/>
    </linearGradient>
  </defs>
  <rect width="1200" height="630" fill="url(#bg)"/>
  <g opacity=".22" stroke="#d8ffe7" stroke-width="3" fill="none">
    <path d="M80 72h1040v486H80z"/>
    <path d="M600 72v486M80 315h1040"/>
    <circle cx="600" cy="315" r="80"/>
    <path d="M80 170h160v290H80M1120 170H960v290h160"/>
  </g>
  <g transform="translate(92 88)">
    <rect x="0" y="0" width="128" height="128" rx="28" fill="#07130c" stroke="#1ee78a" stroke-width="4"/>
    <text x="64" y="77" text-anchor="middle" font-family="Arial, sans-serif" font-size="36" font-weight="900" fill="#f5fff8">WCF</text>
  </g>
  <text x="92" y="295" font-family="Arial, sans-serif" font-size="82" font-weight="900" fill="#f7fff9">WCF Scout 2026</text>
  <text x="96" y="368" font-family="Arial, sans-serif" font-size="34" font-weight="700" fill="#b8d8c4">FIFA World Cup Fantasy differential and captaincy desk</text>
  <g transform="translate(96 430)">
    <rect width="245" height="64" rx="32" fill="url(#glow)" opacity=".95"/>
    <text x="122" y="41" text-anchor="middle" font-family="Arial, sans-serif" font-size="24" font-weight="900" fill="#06120b">Pitchside AI Scout</text>
  </g>
  <g transform="translate(775 120)">
    <rect width="300" height="390" rx="32" fill="#082515" stroke="#34f29b" stroke-width="3" opacity=".78"/>
    <circle cx="150" cy="72" r="32" fill="#29b7ff"/>
    <circle cx="95" cy="170" r="32" fill="#a439ff"/>
    <circle cx="205" cy="170" r="32" fill="#ffca28"/>
    <circle cx="70" cy="285" r="32" fill="#ff6b35"/>
    <circle cx="150" cy="300" r="32" fill="#1ee78a"/>
    <circle cx="230" cy="285" r="32" fill="#f72585"/>
  </g>
</svg>
